# xmcd
#
# Track frame offsets:
#	150
#	17805
#	32050
#	46792
#	62305
#	84157
#	98477
#	110170
#	128310
#	146210
#	166432
#
# Disc length: 2347 seconds
#
# Revision: 1
# Processed by: cddbd v1.5.2PL0 Copyright (c) Steve Scherf et al.
# Submitted via: EZCDAudioConverter 3.1.2.1
#
DISCID=8009290b
DTITLE=Lee Hazlewood - Farmisht, Flatulence, Origami, ARF!!! and more
DYEAR=1999
DGENRE=Unknown
TTITLE0=Honeysuckle Rose
TTITLE1=Ain't Misbehavin
TTITLE2=Ít Had To Be You
TTITLE3=Don't Get Around Much Anymore
TTITLE4=Makin'Whoopiee
TTITLE5=Gee Baby, Ain't I Good To You
TTITLE6=I Can't Get Started
TTITLE7=She's Funny That Way
TTITLE8=Try A Little Tenderness
TTITLE9=The Very Thought Of You
TTITLE10=Am I Blue
EXTD=
EXTT0=
EXTT1=
EXTT2=
EXTT3=
EXTT4=
EXTT5=
EXTT6=
EXTT7=
EXTT8=
EXTT9=
EXTT10=
PLAYORDER=
